<svg version="1.1" xmlns="http://www.w3.org/2000/svg" width="294px" height="294px" viewBox="0 0 294 294"  preserveAspectRatio="xMinYMin meet"><rect width="100%" height="100%" fill="white" cx="0" cy="0"/><path d="M2,2l10,0 0,10 -10,0 0,-10z M12,2l10,0 0,10 -10,0 0,-10z M22,2l10,0 0,10 -10,0 0,-10z M32,2l10,0 0,10 -10,0 0,-10z M42,2l10,0 0,10 -10,0 0,-10z M52,2l10,0 0,10 -10,0 0,-10z M62,2l10,0 0,10 -10,0 0,-10z M82,2l10,0 0,10 -10,0 0,-10z M92,2l10,0 0,10 -10,0 0,-10z M112,2l10,0 0,10 -10,0 0,-10z M132,2l10,0 0,10 -10,0 0,-10z M142,2l10,0 0,10 -10,0 0,-10z M152,2l10,0 0,10 -10,0 0,-10z M172,2l10,0 0,10 -10,0 0,-10z M222,2l10,0 0,10 -10,0 0,-10z M232,2l10,0 0,10 -10,0 0,-10z M242,2l10,0 0,10 -10,0 0,-10z M252,2l10,0 0,10 -10,0 0,-10z M262,2l10,0 0,10 -10,0 0,-10z M272,2l10,0 0,10 -10,0 0,-10z M282,2l10,0 0,10 -10,0 0,-10z M2,12l10,0 0,10 -10,0 0,-10z M62,12l10,0 0,10 -10,0 0,-10z M82,12l10,0 0,10 -10,0 0,-10z M112,12l10,0 0,10 -10,0 0,-10z M122,12l10,0 0,10 -10,0 0,-10z M132,12l10,0 0,10 -10,0 0,-10z M142,12l10,0 0,10 -10,0 0,-10z M152,12l10,0 0,10 -10,0 0,-10z M172,12l10,0 0,10 -10,0 0,-10z M182,12l10,0 0,10 -10,0 0,-10z M192,12l10,0 0,10 -10,0 0,-10z M222,12l10,0 0,10 -10,0 0,-10z M282,12l10,0 0,10 -10,0 0,-10z M2,22l10,0 0,10 -10,0 0,-10z M22,22l10,0 0,10 -10,0 0,-10z M32,22l10,0 0,10 -10,0 0,-10z M42,22l10,0 0,10 -10,0 0,-10z M62,22l10,0 0,10 -10,0 0,-10z M82,22l10,0 0,10 -10,0 0,-10z M92,22l10,0 0,10 -10,0 0,-10z M102,22l10,0 0,10 -10,0 0,-10z M132,22l10,0 0,10 -10,0 0,-10z M142,22l10,0 0,10 -10,0 0,-10z M182,22l10,0 0,10 -10,0 0,-10z M202,22l10,0 0,10 -10,0 0,-10z M222,22l10,0 0,10 -10,0 0,-10z M242,22l10,0 0,10 -10,0 0,-10z M252,22l10,0 0,10 -10,0 0,-10z M262,22l10,0 0,10 -10,0 0,-10z M282,22l10,0 0,10 -10,0 0,-10z M2,32l10,0 0,10 -10,0 0,-10z M22,32l10,0 0,10 -10,0 0,-10z M32,32l10,0 0,10 -10,0 0,-10z M42,32l10,0 0,10 -10,0 0,-10z M62,32l10,0 0,10 -10,0 0,-10z M102,32l10,0 0,10 -10,0 0,-10z M142,32l10,0 0,10 -10,0 0,-10z M152,32l10,0 0,10 -10,0 0,-10z M172,32l10,0 0,10 -10,0 0,-10z M192,32l10,0 0,10 -10,0 0,-10z M202,32l10,0 0,10 -10,0 0,-10z M222,32l10,0 0,10 -10,0 0,-10z M242,32l10,0 0,10 -10,0 0,-10z M252,32l10,0 0,10 -10,0 0,-10z M262,32l10,0 0,10 -10,0 0,-10z M282,32l10,0 0,10 -10,0 0,-10z M2,42l10,0 0,10 -10,0 0,-10z M22,42l10,0 0,10 -10,0 0,-10z M32,42l10,0 0,10 -10,0 0,-10z M42,42l10,0 0,10 -10,0 0,-10z M62,42l10,0 0,10 -10,0 0,-10z M82,42l10,0 0,10 -10,0 0,-10z M102,42l10,0 0,10 -10,0 0,-10z M132,42l10,0 0,10 -10,0 0,-10z M152,42l10,0 0,10 -10,0 0,-10z M172,42l10,0 0,10 -10,0 0,-10z M182,42l10,0 0,10 -10,0 0,-10z M192,42l10,0 0,10 -10,0 0,-10z M202,42l10,0 0,10 -10,0 0,-10z M222,42l10,0 0,10 -10,0 0,-10z M242,42l10,0 0,10 -10,0 0,-10z M252,42l10,0 0,10 -10,0 0,-10z M262,42l10,0 0,10 -10,0 0,-10z M282,42l10,0 0,10 -10,0 0,-10z M2,52l10,0 0,10 -10,0 0,-10z M62,52l10,0 0,10 -10,0 0,-10z M132,52l10,0 0,10 -10,0 0,-10z M142,52l10,0 0,10 -10,0 0,-10z M172,52l10,0 0,10 -10,0 0,-10z M202,52l10,0 0,10 -10,0 0,-10z M222,52l10,0 0,10 -10,0 0,-10z M282,52l10,0 0,10 -10,0 0,-10z M2,62l10,0 0,10 -10,0 0,-10z M12,62l10,0 0,10 -10,0 0,-10z M22,62l10,0 0,10 -10,0 0,-10z M32,62l10,0 0,10 -10,0 0,-10z M42,62l10,0 0,10 -10,0 0,-10z M52,62l10,0 0,10 -10,0 0,-10z M62,62l10,0 0,10 -10,0 0,-10z M82,62l10,0 0,10 -10,0 0,-10z M102,62l10,0 0,10 -10,0 0,-10z M122,62l10,0 0,10 -10,0 0,-10z M142,62l10,0 0,10 -10,0 0,-10z M162,62l10,0 0,10 -10,0 0,-10z M182,62l10,0 0,10 -10,0 0,-10z M202,62l10,0 0,10 -10,0 0,-10z M222,62l10,0 0,10 -10,0 0,-10z M232,62l10,0 0,10 -10,0 0,-10z M242,62l10,0 0,10 -10,0 0,-10z M252,62l10,0 0,10 -10,0 0,-10z M262,62l10,0 0,10 -10,0 0,-10z M272,62l10,0 0,10 -10,0 0,-10z M282,62l10,0 0,10 -10,0 0,-10z M92,72l10,0 0,10 -10,0 0,-10z M102,72l10,0 0,10 -10,0 0,-10z M112,72l10,0 0,10 -10,0 0,-10z M142,72l10,0 0,10 -10,0 0,-10z M2,82l10,0 0,10 -10,0 0,-10z M32,82l10,0 0,10 -10,0 0,-10z M42,82l10,0 0,10 -10,0 0,-10z M52,82l10,0 0,10 -10,0 0,-10z M62,82l10,0 0,10 -10,0 0,-10z M72,82l10,0 0,10 -10,0 0,-10z M82,82l10,0 0,10 -10,0 0,-10z M102,82l10,0 0,10 -10,0 0,-10z M122,82l10,0 0,10 -10,0 0,-10z M132,82l10,0 0,10 -10,0 0,-10z M142,82l10,0 0,10 -10,0 0,-10z M152,82l10,0 0,10 -10,0 0,-10z M162,82l10,0 0,10 -10,0 0,-10z M172,82l10,0 0,10 -10,0 0,-10z M212,82l10,0 0,10 -10,0 0,-10z M242,82l10,0 0,10 -10,0 0,-10z M262,82l10,0 0,10 -10,0 0,-10z M272,82l10,0 0,10 -10,0 0,-10z M282,82l10,0 0,10 -10,0 0,-10z M2,92l10,0 0,10 -10,0 0,-10z M12,92l10,0 0,10 -10,0 0,-10z M52,92l10,0 0,10 -10,0 0,-10z M82,92l10,0 0,10 -10,0 0,-10z M102,92l10,0 0,10 -10,0 0,-10z M122,92l10,0 0,10 -10,0 0,-10z M142,92l10,0 0,10 -10,0 0,-10z M182,92l10,0 0,10 -10,0 0,-10z M192,92l10,0 0,10 -10,0 0,-10z M232,92l10,0 0,10 -10,0 0,-10z M242,92l10,0 0,10 -10,0 0,-10z M262,92l10,0 0,10 -10,0 0,-10z M272,92l10,0 0,10 -10,0 0,-10z M22,102l10,0 0,10 -10,0 0,-10z M32,102l10,0 0,10 -10,0 0,-10z M42,102l10,0 0,10 -10,0 0,-10z M52,102l10,0 0,10 -10,0 0,-10z M62,102l10,0 0,10 -10,0 0,-10z M102,102l10,0 0,10 -10,0 0,-10z M122,102l10,0 0,10 -10,0 0,-10z M142,102l10,0 0,10 -10,0 0,-10z M182,102l10,0 0,10 -10,0 0,-10z M232,102l10,0 0,10 -10,0 0,-10z M242,102l10,0 0,10 -10,0 0,-10z M262,102l10,0 0,10 -10,0 0,-10z M12,112l10,0 0,10 -10,0 0,-10z M22,112l10,0 0,10 -10,0 0,-10z M32,112l10,0 0,10 -10,0 0,-10z M42,112l10,0 0,10 -10,0 0,-10z M52,112l10,0 0,10 -10,0 0,-10z M72,112l10,0 0,10 -10,0 0,-10z M92,112l10,0 0,10 -10,0 0,-10z M112,112l10,0 0,10 -10,0 0,-10z M122,112l10,0 0,10 -10,0 0,-10z M142,112l10,0 0,10 -10,0 0,-10z M152,112l10,0 0,10 -10,0 0,-10z M172,112l10,0 0,10 -10,0 0,-10z M212,112l10,0 0,10 -10,0 0,-10z M222,112l10,0 0,10 -10,0 0,-10z M232,112l10,0 0,10 -10,0 0,-10z M242,112l10,0 0,10 -10,0 0,-10z M252,112l10,0 0,10 -10,0 0,-10z M282,112l10,0 0,10 -10,0 0,-10z M12,122l10,0 0,10 -10,0 0,-10z M22,122l10,0 0,10 -10,0 0,-10z M62,122l10,0 0,10 -10,0 0,-10z M72,122l10,0 0,10 -10,0 0,-10z M102,122l10,0 0,10 -10,0 0,-10z M122,122l10,0 0,10 -10,0 0,-10z M132,122l10,0 0,10 -10,0 0,-10z M142,122l10,0 0,10 -10,0 0,-10z M202,122l10,0 0,10 -10,0 0,-10z M222,122l10,0 0,10 -10,0 0,-10z M282,122l10,0 0,10 -10,0 0,-10z M22,132l10,0 0,10 -10,0 0,-10z M32,132l10,0 0,10 -10,0 0,-10z M42,132l10,0 0,10 -10,0 0,-10z M72,132l10,0 0,10 -10,0 0,-10z M82,132l10,0 0,10 -10,0 0,-10z M172,132l10,0 0,10 -10,0 0,-10z M182,132l10,0 0,10 -10,0 0,-10z M222,132l10,0 0,10 -10,0 0,-10z M232,132l10,0 0,10 -10,0 0,-10z M242,132l10,0 0,10 -10,0 0,-10z M252,132l10,0 0,10 -10,0 0,-10z M262,132l10,0 0,10 -10,0 0,-10z M272,132l10,0 0,10 -10,0 0,-10z M282,132l10,0 0,10 -10,0 0,-10z M12,142l10,0 0,10 -10,0 0,-10z M32,142l10,0 0,10 -10,0 0,-10z M52,142l10,0 0,10 -10,0 0,-10z M62,142l10,0 0,10 -10,0 0,-10z M72,142l10,0 0,10 -10,0 0,-10z M82,142l10,0 0,10 -10,0 0,-10z M92,142l10,0 0,10 -10,0 0,-10z M102,142l10,0 0,10 -10,0 0,-10z M112,142l10,0 0,10 -10,0 0,-10z M122,142l10,0 0,10 -10,0 0,-10z M142,142l10,0 0,10 -10,0 0,-10z M152,142l10,0 0,10 -10,0 0,-10z M172,142l10,0 0,10 -10,0 0,-10z M192,142l10,0 0,10 -10,0 0,-10z M262,142l10,0 0,10 -10,0 0,-10z M282,142l10,0 0,10 -10,0 0,-10z M2,152l10,0 0,10 -10,0 0,-10z M12,152l10,0 0,10 -10,0 0,-10z M22,152l10,0 0,10 -10,0 0,-10z M32,152l10,0 0,10 -10,0 0,-10z M42,152l10,0 0,10 -10,0 0,-10z M52,152l10,0 0,10 -10,0 0,-10z M72,152l10,0 0,10 -10,0 0,-10z M112,152l10,0 0,10 -10,0 0,-10z M132,152l10,0 0,10 -10,0 0,-10z M142,152l10,0 0,10 -10,0 0,-10z M162,152l10,0 0,10 -10,0 0,-10z M192,152l10,0 0,10 -10,0 0,-10z M232,152l10,0 0,10 -10,0 0,-10z M262,152l10,0 0,10 -10,0 0,-10z M282,152l10,0 0,10 -10,0 0,-10z M2,162l10,0 0,10 -10,0 0,-10z M42,162l10,0 0,10 -10,0 0,-10z M52,162l10,0 0,10 -10,0 0,-10z M62,162l10,0 0,10 -10,0 0,-10z M92,162l10,0 0,10 -10,0 0,-10z M112,162l10,0 0,10 -10,0 0,-10z M122,162l10,0 0,10 -10,0 0,-10z M152,162l10,0 0,10 -10,0 0,-10z M192,162l10,0 0,10 -10,0 0,-10z M202,162l10,0 0,10 -10,0 0,-10z M232,162l10,0 0,10 -10,0 0,-10z M252,162l10,0 0,10 -10,0 0,-10z M2,172l10,0 0,10 -10,0 0,-10z M22,172l10,0 0,10 -10,0 0,-10z M112,172l10,0 0,10 -10,0 0,-10z M172,172l10,0 0,10 -10,0 0,-10z M192,172l10,0 0,10 -10,0 0,-10z M232,172l10,0 0,10 -10,0 0,-10z M242,172l10,0 0,10 -10,0 0,-10z M262,172l10,0 0,10 -10,0 0,-10z M272,172l10,0 0,10 -10,0 0,-10z M2,182l10,0 0,10 -10,0 0,-10z M12,182l10,0 0,10 -10,0 0,-10z M32,182l10,0 0,10 -10,0 0,-10z M42,182l10,0 0,10 -10,0 0,-10z M52,182l10,0 0,10 -10,0 0,-10z M62,182l10,0 0,10 -10,0 0,-10z M102,182l10,0 0,10 -10,0 0,-10z M132,182l10,0 0,10 -10,0 0,-10z M142,182l10,0 0,10 -10,0 0,-10z M162,182l10,0 0,10 -10,0 0,-10z M192,182l10,0 0,10 -10,0 0,-10z M242,182l10,0 0,10 -10,0 0,-10z M252,182l10,0 0,10 -10,0 0,-10z M282,182l10,0 0,10 -10,0 0,-10z M2,192l10,0 0,10 -10,0 0,-10z M12,192l10,0 0,10 -10,0 0,-10z M72,192l10,0 0,10 -10,0 0,-10z M82,192l10,0 0,10 -10,0 0,-10z M122,192l10,0 0,10 -10,0 0,-10z M132,192l10,0 0,10 -10,0 0,-10z M152,192l10,0 0,10 -10,0 0,-10z M162,192l10,0 0,10 -10,0 0,-10z M182,192l10,0 0,10 -10,0 0,-10z M202,192l10,0 0,10 -10,0 0,-10z M242,192l10,0 0,10 -10,0 0,-10z M252,192l10,0 0,10 -10,0 0,-10z M262,192l10,0 0,10 -10,0 0,-10z M2,202l10,0 0,10 -10,0 0,-10z M12,202l10,0 0,10 -10,0 0,-10z M32,202l10,0 0,10 -10,0 0,-10z M52,202l10,0 0,10 -10,0 0,-10z M62,202l10,0 0,10 -10,0 0,-10z M72,202l10,0 0,10 -10,0 0,-10z M102,202l10,0 0,10 -10,0 0,-10z M112,202l10,0 0,10 -10,0 0,-10z M122,202l10,0 0,10 -10,0 0,-10z M132,202l10,0 0,10 -10,0 0,-10z M172,202l10,0 0,10 -10,0 0,-10z M202,202l10,0 0,10 -10,0 0,-10z M212,202l10,0 0,10 -10,0 0,-10z M222,202l10,0 0,10 -10,0 0,-10z M232,202l10,0 0,10 -10,0 0,-10z M242,202l10,0 0,10 -10,0 0,-10z M252,202l10,0 0,10 -10,0 0,-10z M262,202l10,0 0,10 -10,0 0,-10z M272,202l10,0 0,10 -10,0 0,-10z M82,212l10,0 0,10 -10,0 0,-10z M92,212l10,0 0,10 -10,0 0,-10z M112,212l10,0 0,10 -10,0 0,-10z M132,212l10,0 0,10 -10,0 0,-10z M162,212l10,0 0,10 -10,0 0,-10z M182,212l10,0 0,10 -10,0 0,-10z M202,212l10,0 0,10 -10,0 0,-10z M242,212l10,0 0,10 -10,0 0,-10z M252,212l10,0 0,10 -10,0 0,-10z M2,222l10,0 0,10 -10,0 0,-10z M12,222l10,0 0,10 -10,0 0,-10z M22,222l10,0 0,10 -10,0 0,-10z M32,222l10,0 0,10 -10,0 0,-10z M42,222l10,0 0,10 -10,0 0,-10z M52,222l10,0 0,10 -10,0 0,-10z M62,222l10,0 0,10 -10,0 0,-10z M82,222l10,0 0,10 -10,0 0,-10z M92,222l10,0 0,10 -10,0 0,-10z M132,222l10,0 0,10 -10,0 0,-10z M152,222l10,0 0,10 -10,0 0,-10z M162,222l10,0 0,10 -10,0 0,-10z M172,222l10,0 0,10 -10,0 0,-10z M192,222l10,0 0,10 -10,0 0,-10z M202,222l10,0 0,10 -10,0 0,-10z M222,222l10,0 0,10 -10,0 0,-10z M242,222l10,0 0,10 -10,0 0,-10z M252,222l10,0 0,10 -10,0 0,-10z M2,232l10,0 0,10 -10,0 0,-10z M62,232l10,0 0,10 -10,0 0,-10z M82,232l10,0 0,10 -10,0 0,-10z M92,232l10,0 0,10 -10,0 0,-10z M112,232l10,0 0,10 -10,0 0,-10z M122,232l10,0 0,10 -10,0 0,-10z M132,232l10,0 0,10 -10,0 0,-10z M162,232l10,0 0,10 -10,0 0,-10z M172,232l10,0 0,10 -10,0 0,-10z M192,232l10,0 0,10 -10,0 0,-10z M202,232l10,0 0,10 -10,0 0,-10z M242,232l10,0 0,10 -10,0 0,-10z M272,232l10,0 0,10 -10,0 0,-10z M282,232l10,0 0,10 -10,0 0,-10z M2,242l10,0 0,10 -10,0 0,-10z M22,242l10,0 0,10 -10,0 0,-10z M32,242l10,0 0,10 -10,0 0,-10z M42,242l10,0 0,10 -10,0 0,-10z M62,242l10,0 0,10 -10,0 0,-10z M82,242l10,0 0,10 -10,0 0,-10z M102,242l10,0 0,10 -10,0 0,-10z M112,242l10,0 0,10 -10,0 0,-10z M122,242l10,0 0,10 -10,0 0,-10z M132,242l10,0 0,10 -10,0 0,-10z M152,242l10,0 0,10 -10,0 0,-10z M162,242l10,0 0,10 -10,0 0,-10z M192,242l10,0 0,10 -10,0 0,-10z M202,242l10,0 0,10 -10,0 0,-10z M212,242l10,0 0,10 -10,0 0,-10z M222,242l10,0 0,10 -10,0 0,-10z M232,242l10,0 0,10 -10,0 0,-10z M242,242l10,0 0,10 -10,0 0,-10z M252,242l10,0 0,10 -10,0 0,-10z M2,252l10,0 0,10 -10,0 0,-10z M22,252l10,0 0,10 -10,0 0,-10z M32,252l10,0 0,10 -10,0 0,-10z M42,252l10,0 0,10 -10,0 0,-10z M62,252l10,0 0,10 -10,0 0,-10z M82,252l10,0 0,10 -10,0 0,-10z M102,252l10,0 0,10 -10,0 0,-10z M142,252l10,0 0,10 -10,0 0,-10z M162,252l10,0 0,10 -10,0 0,-10z M212,252l10,0 0,10 -10,0 0,-10z M232,252l10,0 0,10 -10,0 0,-10z M272,252l10,0 0,10 -10,0 0,-10z M2,262l10,0 0,10 -10,0 0,-10z M22,262l10,0 0,10 -10,0 0,-10z M32,262l10,0 0,10 -10,0 0,-10z M42,262l10,0 0,10 -10,0 0,-10z M62,262l10,0 0,10 -10,0 0,-10z M92,262l10,0 0,10 -10,0 0,-10z M142,262l10,0 0,10 -10,0 0,-10z M162,262l10,0 0,10 -10,0 0,-10z M172,262l10,0 0,10 -10,0 0,-10z M182,262l10,0 0,10 -10,0 0,-10z M192,262l10,0 0,10 -10,0 0,-10z M212,262l10,0 0,10 -10,0 0,-10z M242,262l10,0 0,10 -10,0 0,-10z M262,262l10,0 0,10 -10,0 0,-10z M272,262l10,0 0,10 -10,0 0,-10z M282,262l10,0 0,10 -10,0 0,-10z M2,272l10,0 0,10 -10,0 0,-10z M62,272l10,0 0,10 -10,0 0,-10z M132,272l10,0 0,10 -10,0 0,-10z M152,272l10,0 0,10 -10,0 0,-10z M182,272l10,0 0,10 -10,0 0,-10z M212,272l10,0 0,10 -10,0 0,-10z M252,272l10,0 0,10 -10,0 0,-10z M262,272l10,0 0,10 -10,0 0,-10z M282,272l10,0 0,10 -10,0 0,-10z M2,282l10,0 0,10 -10,0 0,-10z M12,282l10,0 0,10 -10,0 0,-10z M22,282l10,0 0,10 -10,0 0,-10z M32,282l10,0 0,10 -10,0 0,-10z M42,282l10,0 0,10 -10,0 0,-10z M52,282l10,0 0,10 -10,0 0,-10z M62,282l10,0 0,10 -10,0 0,-10z M82,282l10,0 0,10 -10,0 0,-10z M92,282l10,0 0,10 -10,0 0,-10z M102,282l10,0 0,10 -10,0 0,-10z M112,282l10,0 0,10 -10,0 0,-10z M122,282l10,0 0,10 -10,0 0,-10z M132,282l10,0 0,10 -10,0 0,-10z M172,282l10,0 0,10 -10,0 0,-10z M182,282l10,0 0,10 -10,0 0,-10z M192,282l10,0 0,10 -10,0 0,-10z M202,282l10,0 0,10 -10,0 0,-10z M222,282l10,0 0,10 -10,0 0,-10z M242,282l10,0 0,10 -10,0 0,-10z M252,282l10,0 0,10 -10,0 0,-10z " stroke="transparent" fill="black"/></svg>
